<svg xmlns="http://www.w3.org/2000/svg" version="1.1" xmlns:xlink="http://www.w3.org/1999/xlink" xmlns:svgjs="http://svgjs.dev/svgjs" width="1000" height="255" viewBox="0 0 1000 255"><g transform="matrix(1,0,0,1,-0.6060606060605096,-0.10900895511555575)"><svg viewBox="0 0 396 101" data-background-color="#800000" preserveAspectRatio="xMidYMid meet" height="255" width="1000" xmlns="http://www.w3.org/2000/svg" xmlns:xlink="http://www.w3.org/1999/xlink"><g id="tight-bounds" transform="matrix(1,0,0,1,0.23999999999995225,0.043176095947728754)"><svg viewBox="0 0 395.52 100.91364780810454" height="100.91364780810454" width="395.52"><g><svg viewBox="0 0 578.4371918014255 147.58345229712293" height="100.91364780810454" width="395.52"><g transform="matrix(1,0,0,1,182.91719180142556,20.396844709660265)"><svg viewBox="0 0 395.5199999999999 106.7897628778024" height="106.7897628778024" width="395.5199999999999"><g id="textblocktransform"><svg viewBox="0 0 395.5199999999999 106.7897628778024" height="106.7897628778024" width="395.5199999999999" id="textblock"><g><svg viewBox="0 0 395.5199999999999 57.597295298468026" height="57.597295298468026" width="395.5199999999999"><g transform="matrix(1,0,0,1,0,0)"><svg width="395.5199999999999" viewBox="2.3 -40.3 283.93 41.349999999999994" height="57.597295298468026" data-palette-color="#ffffe0"><path d="M23.65-39.75Q28.9-39.75 32.93-37.27 36.95-34.8 39.18-30.4 41.4-26 41.4-20.45L41.4-20.45Q41.4-14.75 38.02-9.93 34.65-5.1 29.65-2.27 24.65 0.55 20.1 0.55L20.1 0.55Q17.7 0.55 15.45 0.3L15.45 0.3Q11.55 0.05 9.55 0.05L9.55 0.05 2.9 0.05 2.9-1.75 7.6-5.45 7.6-35.35 2.3-37.05 3.45-39.3 9.5-39.3Q14.2-39.3 18.7-39.6L18.7-39.6Q22.1-39.8 23.65-39.8L23.65-39.8 23.65-39.75ZM21.5-3.4Q25-3.4 27.85-5.3 30.7-7.2 32.35-10.58 34-13.95 34-18.15L34-18.15Q34-23.2 32.45-27.33 30.9-31.45 27.7-33.9 24.5-36.35 19.75-36.35L19.75-36.35Q16.8-36.35 14.4-34.65L14.4-34.65 14.4-4.55Q17.45-3.35 21.5-3.35L21.5-3.35 21.5-3.4ZM64.45-2.3L63.35-0.05 47.65-0.05 47.65-1.85 52.35-5.55 52.35-35.35 47.05-37.05 48.2-39.3 63.9-39.3 63.9-37.5 59.15-33.75 59.15-4 64.45-2.3ZM118.84-2.2L117.75 0.05 102.05 0.05 102.05-1.75 106.75-5.45 106.75-32.35 93.59 0.05 90.5 0.05 77.4-32.7 77.4-4.75 82.7-2.2 81.59 0.05 69.65 0.05 69.65-1.75 74.34-5.45 74.34-34.35 69.05-37.05 70.2-39.3 81.7-39.3 93.95-8.65 106.2-39.3 118.3-39.3 118.3-37.5 113.55-33.8 113.55-3.95 118.84-2.2ZM149.94-21.2Q153.69-20.05 155.87-17.43 158.04-14.8 158.04-11.45L158.04-11.45Q158.04-8.3 155.47-5.53 152.89-2.75 149.07-1.1 145.24 0.55 141.79 0.55L141.79 0.55Q139.29 0.55 136.89 0.3L136.89 0.3Q132.89 0.05 130.69 0.05L130.69 0.05 124.09 0.05 124.09-1.75 128.79-5.45 128.79-35.4 123.49-37.05 124.64-39.3 130.64-39.3Q135.19-39.3 139.59-39.6L139.59-39.6Q142.99-39.8 144.59-39.8L144.59-39.8Q147.99-39.8 150.59-38.5 153.19-37.2 154.62-34.98 156.04-32.75 156.04-30L156.04-30Q156.04-27.5 154.37-25.2 152.69-22.9 149.94-21.25L149.94-21.25 149.94-21.2ZM148.69-27.55Q148.69-31.4 146.67-33.85 144.64-36.3 140.69-36.3L140.69-36.3Q137.94-36.3 135.59-34.75L135.59-34.75 135.59-21.55 142.44-21.55Q145.39-21.55 147.04-23.1 148.69-24.65 148.69-27.55L148.69-27.55ZM143.19-3.35Q146.64-3.35 148.67-5.1 150.69-6.85 150.69-9.8L150.69-9.8Q150.69-13.6 148.49-15.95 146.29-18.3 141.99-18.45L141.99-18.45Q141.64-18.4 141.04-18.4L141.04-18.4 135.59-18.4 135.59-4.65Q138.79-3.4 143.19-3.4L143.19-3.4 143.19-3.35ZM204.69-2.25L203.59 0 187.69 0 187.69-1.8 192.59-5.35 188.89-14.25 172.29-14.25 168.49-5.4 177.09-2.25 175.94 0 160.54 0 160.54-1.8 165.39-5.55 179.29-37.7 185.19-40.25 199.69-5.15 204.69-2.25ZM187.84-16.85L180.79-33.9 173.44-16.85 187.84-16.85ZM223.04-15L223.04-3.95 228.34-2.25 227.24 0 211.59 0 211.59-1.8 216.29-5.5 216.29-14 203.34-34.8 199.44-37.05 200.44-39.3 215.99-39.3 215.99-37.5 211.54-34.05 221.34-18.25 231.44-33.8 223.64-37.05 224.74-39.3 240.14-39.3 240.14-37.5 235.89-34.8 223.04-15ZM249.78-21.25L247.13-21.2 243.13-35 243.13-36.8 249.33-39.3 251.48-39.3 249.78-21.25ZM279.23-8.75Q279.23-10.3 277.98-11.65 276.73-13 274.88-14.13 273.03-15.25 269.88-16.9L269.88-16.9Q266.13-18.85 263.81-20.3 261.48-21.75 259.86-23.73 258.23-25.7 258.23-28.1L258.23-28.1Q258.23-30.6 260.36-33.48 262.48-36.35 265.58-38.33 268.68-40.3 271.28-40.3L271.28-40.3Q274.43-40.3 278.61-39.55 282.78-38.8 284.73-37.95L284.73-37.95 284.73-28 282.28-28Q279.93-32.05 277.08-34.3 274.23-36.55 271.08-36.55L271.08-36.55Q268.38-36.55 266.83-34.88 265.28-33.2 265.28-30.55L265.28-30.55Q265.28-28.9 266.56-27.48 267.83-26.05 269.73-24.9 271.63-23.75 274.83-22.1L274.83-22.1Q278.63-20.1 280.86-18.7 283.08-17.3 284.66-15.4 286.23-13.5 286.23-11.15L286.23-11.15Q286.23-8.65 283.96-5.78 281.68-2.9 278.38-0.93 275.08 1.05 272.38 1.05L272.38 1.05Q269.08 1.05 264.53 0.3 259.98-0.45 257.98-1.3L257.98-1.3 257.98-11.25 260.43-11.25Q262.93-7.2 266.11-4.95 269.28-2.7 272.63-2.7L272.63-2.7Q274.63-2.7 276.13-3.55 277.63-4.4 278.43-5.78 279.23-7.15 279.23-8.75L279.23-8.75Z" opacity="1" transform="matrix(1,0,0,1,0,0)" fill="#ffffe0" class="wordmark-text-0" data-fill-palette-color="primary" id="text-0"></path></svg></g></svg></g><g transform="matrix(1,0,0,1,0,71.19463438334917)"><svg viewBox="0 0 395.5199999999999 35.59512849445324" height="35.59512849445324" width="395.5199999999999"><g transform="matrix(1,0,0,1,0,0)"><svg width="395.5199999999999" viewBox="2 -33.89 382.51 34.43" height="35.59512849445324" data-palette-color="#c0c0c0"><path d="M2.98-23.93L2.98-23.93Q2.98-27.69 5.86-30.1 8.74-32.52 12.55-32.52L12.55-32.52Q13.62-32.52 14.58-32.4 15.53-32.28 16.14-32.13 16.75-31.98 17.9-31.67 19.04-31.35 19.92-31.15L19.92-31.15Q20.51-28.56 20.51-24.17L20.51-24.17Q20.51-23.83 20.02-23.83L20.02-23.83Q18.85-23.83 18.75-24.32L18.75-24.32Q18.51-26.46 16.67-28.49 14.84-30.52 12.21-30.52L12.21-30.52Q9.28-30.52 8.08-29.05 6.88-27.59 6.88-25.44L6.88-25.44Q6.88-24.51 7.23-23.66 7.57-22.8 7.91-22.24 8.25-21.68 9.16-20.95 10.06-20.21 10.47-19.92 10.89-19.63 12.13-18.85 13.38-18.07 13.72-17.87L13.72-17.87Q13.96-17.72 15.43-16.82 16.89-15.92 17.43-15.55 17.97-15.19 19.12-14.23 20.26-13.28 20.78-12.55 21.29-11.82 21.75-10.72 22.22-9.62 22.22-8.45L22.22-8.45Q22.22-4.54 19.17-2.03 16.11 0.49 12.01 0.49L12.01 0.49Q10.84 0.49 9.52 0.32 8.2 0.15 7.32-0.02 6.45-0.2 5.1-0.51 3.76-0.83 3.22-0.93L3.22-0.93Q2-6.93 2-8.69L2-8.69Q2-8.98 2.78-8.98L2.78-8.98Q3.66-8.98 4-8.54L4-8.54Q5.66-1.51 12.11-1.51L12.11-1.51Q14.55-1.51 16.26-2.98 17.97-4.44 17.97-7.13L17.97-7.13Q17.97-8.11 17.68-8.94 17.38-9.77 17.07-10.3 16.75-10.84 15.94-11.45 15.14-12.06 14.7-12.35 14.26-12.65 13.09-13.28 11.91-13.92 11.47-14.16L11.47-14.16Q10.06-14.99 9.5-15.33 8.94-15.67 7.64-16.53 6.35-17.38 5.76-18.04 5.18-18.7 4.39-19.65 3.61-20.61 3.3-21.68 2.98-22.75 2.98-23.93ZM42.5-5.86L42.5-18.26 39.67-18.26Q39.42-18.26 39.42-19.29L39.42-19.29Q39.42-19.58 39.47-19.63L39.47-19.63Q40.89-20.26 42.55-22.22L42.55-22.22Q43.08-22.85 43.6-23.66 44.11-24.46 44.45-25.05 44.79-25.63 44.79-25.68L44.79-25.68Q46.26-25.68 46.26-25.44L46.26-25.44 46.26-20.61Q47.53-20.61 50.12-20.58 52.7-20.56 52.85-20.56L52.85-20.56Q53.24-20.56 53.24-20.12L53.24-20.12Q53.24-19.24 52.75-18.26L52.75-18.26 46.26-18.26 46.26-6.3Q46.26-4.35 47.26-3.17 48.26-2 49.87-2L49.87-2Q51.34-2 52.9-2.93L52.9-2.93Q53.05-3.03 53.34-2.51 53.63-2 53.58-1.95L53.58-1.95Q52.85-1.17 51.34-0.42 49.82 0.34 48.21 0.34L48.21 0.34Q45.77 0.34 44.13-1.27 42.5-2.88 42.5-5.86L42.5-5.86ZM79.53-19.48L79.53-19.48Q76.99-19.48 75.65-17.31 74.3-15.14 74.3-13.72L74.3-13.72Q74.3-13.38 74.6-13.38L74.6-13.38 84.12-13.38Q84.36-13.38 84.36-13.87L84.36-13.87Q84.36-15.43 83.04-17.46 81.73-19.48 79.53-19.48ZM80.02-21.29L80.02-21.29Q82.26-21.29 83.97-20.43 85.68-19.58 86.58-18.24 87.49-16.89 87.9-15.5 88.32-14.11 88.32-12.74L88.32-12.74Q88.32-11.77 88.02-11.55 87.73-11.33 86.9-11.33L86.9-11.33 74.6-11.33Q74.21-11.33 74.21-11.08L74.21-11.08Q74.21-8.01 76.06-5.42 77.92-2.83 81.43-2.83L81.43-2.83Q82.46-2.83 83.39-3.03 84.31-3.22 84.97-3.49 85.63-3.76 86.1-4.03 86.56-4.3 86.9-4.54L86.9-4.54 87.24-4.79Q87.54-4.79 87.54-4.15L87.54-4.15Q87.54-3.76 87.24-3.27L87.24-3.27Q86.27-1.9 84.36-0.81 82.46 0.29 80.21 0.29L80.21 0.29Q76.16 0.29 73.25-2.76 70.35-5.81 70.35-10.21L70.35-10.21Q70.35-15.33 73.11-18.31 75.87-21.29 80.02-21.29ZM110.99-3.15Q111.82-2.44 113.14-2.44 114.46-2.44 115.68-3.25 116.9-4.05 116.9-4.88L116.9-4.88 116.9-9.91Q116.51-9.72 115-9.23 113.48-8.74 112.63-8.37 111.77-8.01 110.97-7.15 110.16-6.3 110.16-5.18L110.16-5.18Q110.16-3.86 110.99-3.15ZM115.58-21.29L115.58-21.29Q118.27-21.29 119.44-20 120.61-18.7 120.61-15.82L120.61-15.82 120.61-4.54Q120.61-3.52 121.15-2.83 121.69-2.15 122.61-2.15L122.61-2.15Q123.3-2.15 124.32-2.83L124.32-2.83Q124.52-2.83 124.52-2.44L124.52-2.44Q124.52-1.81 124.27-1.42L124.27-1.42Q122.27 0.29 120.85 0.29L120.85 0.29Q119.73 0.29 118.71-0.63 117.68-1.56 117.29-2.59L117.29-2.59Q117.24-2.59 116.92-2.27 116.61-1.95 116.07-1.54 115.53-1.12 114.82-0.68 114.12-0.24 113.16 0.05 112.21 0.34 111.24 0.34L111.24 0.34Q108.99 0.34 107.52-0.85 106.06-2.05 106.06-4.44L106.06-4.44Q106.06-5.52 106.6-6.47 107.13-7.42 107.87-8.03 108.6-8.64 109.87-9.28 111.14-9.91 112.04-10.23 112.94-10.55 114.41-11.04 115.87-11.52 116.46-11.77L116.46-11.77Q116.9-11.91 116.9-12.5L116.9-12.5 116.9-16.16Q116.9-17.72 115.92-18.58 114.95-19.43 113.58-19.43L113.58-19.43Q112.11-19.43 111.14-18.43 110.16-17.43 110.16-15.82L110.16-15.82Q110.16-14.11 108.16-14.11L108.16-14.11Q106.79-14.11 106.26-15.04L106.26-15.04Q106.26-17.14 109.33-19.21 112.41-21.29 115.58-21.29ZM158.32-17.97L158.32-17.97Q157.49-17.48 155.15-15.65 152.81-13.82 151.1-12.06L151.1-12.06Q152.51-10.55 154.56-8.23 156.62-5.91 157.93-4.47 159.25-3.03 159.74-2.59L159.74-2.59Q160.57-1.9 161.84-1.54 163.11-1.17 163.65-1.17L163.65-1.17Q163.84-1.17 163.84-0.39L163.84-0.39Q163.84 0.05 163.79 0.15L163.79 0.15Q158.91-0.1 158.47-0.1L158.47-0.1Q158.37-0.1 153.39 0.15L153.39 0.15Q153.2-0.05 153.2-0.61 153.2-1.17 153.39-1.17L153.39-1.17Q153.88-1.17 154.52-1.37 155.15-1.56 155.15-1.81L155.15-1.81Q155.15-1.9 155.1-1.95L155.1-1.95 147.97-9.67 147.39-9.52 147.39-6.59Q147.48-3.37 147.78-2.25L147.78-2.25Q147.88-1.9 149.05-1.59 150.22-1.27 150.71-1.27L150.71-1.27Q150.85-1.27 150.9-0.68 150.95-0.1 150.85 0.15L150.85 0.15Q145.97-0.1 145.63-0.1L145.63-0.1Q145.34-0.1 140.31 0.15L140.31 0.15Q140.11-0.05 140.11-0.66 140.11-1.27 140.31-1.27L140.31-1.27Q140.89-1.27 142.04-1.59 143.19-1.9 143.29-2.25L143.29-2.25Q143.63-3.66 143.63-5.66L143.63-5.66 143.63-26.81Q143.63-28.47 143.33-29.93L143.33-29.93Q143.09-30.71 140.84-30.71L140.84-30.71 140.4-30.71Q140.11-30.71 140.11-31.25L140.11-31.25Q140.11-32.03 140.4-32.03L140.4-32.03Q141.87-32.18 143.11-32.42 144.36-32.67 145.07-32.91 145.78-33.15 146.26-33.37 146.75-33.59 146.95-33.74L146.95-33.74 147.19-33.89 147.29-33.89Q147.48-33.89 147.68-33.62 147.88-33.35 147.92-33.11L147.92-33.11Q147.39-31.54 147.39-28.86L147.39-28.86 147.39-11.77Q148.41-12.01 148.61-12.21L148.61-12.21Q149.68-13.13 150.85-14.11 152.03-15.09 152.61-15.58 153.2-16.06 153.73-16.55 154.27-17.04 154.47-17.33 154.66-17.63 154.66-17.92L154.66-17.92Q154.66-18.51 153.59-18.6 152.51-18.7 152.46-18.8L152.46-18.8Q152.12-19.78 152.51-19.92L152.51-19.92 156.37-19.92Q157.1-19.92 157.91-19.97 158.71-20.02 159.81-20.07 160.91-20.12 161.74-20.17L161.74-20.17Q161.94-20.07 161.96-19.73 161.99-19.38 161.89-19.09 161.79-18.8 161.69-18.8L161.69-18.8Q161.06-18.8 159.89-18.51 158.71-18.21 158.32-17.97ZM228.82-6.59L228.82-6.59 228.82-15.19Q228.82-15.19 228.72-15.38L228.72-15.38Q224.13-15.48 221.5-15.48L221.5-15.48Q213.98-15.48 213.98-15.23L213.98-15.23 213.98-6.79Q213.98-3.96 214.42-2.25L214.42-2.25Q214.51-1.9 215.78-1.59 217.05-1.27 217.54-1.27L217.54-1.27Q217.69-1.27 217.71-0.68 217.74-0.1 217.64 0.15L217.64 0.15Q212.75-0.1 211.97-0.1L211.97-0.1Q211.73-0.1 206.11 0.15L206.11 0.15Q205.92-0.05 205.92-0.59L205.92-0.59Q205.92-1.27 206.11-1.27L206.11-1.27Q206.75-1.27 207.99-1.56 209.24-1.86 209.39-2.25L209.39-2.25Q209.73-3.56 209.73-6.59L209.73-6.59 209.73-25.54Q209.73-28.56 209.39-29.88L209.39-29.88Q209.24-30.27 207.99-30.59 206.75-30.91 206.11-30.91L206.11-30.91Q205.92-30.91 205.92-31.54L205.92-31.54Q205.92-32.13 206.11-32.32L206.11-32.32Q206.75-32.28 208.7-32.15 210.66-32.03 211.97-32.03L211.97-32.03Q212.95-32.03 213.88-32.08 214.81-32.13 215.88-32.2 216.95-32.28 217.64-32.32L217.64-32.32Q217.74-32.13 217.71-31.52 217.69-30.91 217.54-30.91L217.54-30.91Q217.05-30.91 215.78-30.57 214.51-30.22 214.42-29.88L214.42-29.88Q213.98-28.17 213.98-25.34L213.98-25.34 213.98-18.07 214.07-17.92Q218.86-17.82 221.5-17.82L221.5-17.82Q224.33-17.82 228.72-17.92L228.72-17.92Q228.82-18.02 228.82-18.12L228.82-18.12 228.82-25.54Q228.82-28.56 228.48-29.88L228.48-29.88Q228.33-30.27 227.09-30.59 225.84-30.91 225.21-30.91L225.21-30.91Q225.01-30.91 225.01-31.52 225.01-32.13 225.21-32.32L225.21-32.32Q225.79-32.28 227.79-32.15 229.8-32.03 231.11-32.03L231.11-32.03Q232.04-32.03 232.97-32.08 233.9-32.13 234.95-32.2 236-32.28 236.68-32.32L236.68-32.32Q236.78-32.03 236.78-31.59L236.78-31.59Q236.78-30.91 236.58-30.91L236.58-30.91Q236.09-30.91 234.83-30.57 233.56-30.22 233.46-29.88L233.46-29.88Q233.07-28.37 233.07-25.34L233.07-25.34 233.07-6.79Q233.07-3.76 233.46-2.25L233.46-2.25Q233.56-1.9 234.83-1.59 236.09-1.27 236.58-1.27L236.58-1.27Q236.78-1.27 236.78-0.54L236.78-0.54Q236.78-0.15 236.68 0.15L236.68 0.15Q231.8-0.1 231.11-0.1L231.11-0.1Q230.82-0.1 225.21 0.15L225.21 0.15Q225.01-0.05 225.01-0.66 225.01-1.27 225.21-1.27L225.21-1.27Q225.84-1.27 227.09-1.56 228.33-1.86 228.48-2.25L228.48-2.25Q228.82-3.56 228.82-6.59ZM265.07-19.43L265.07-19.43Q262.48-19.43 260.84-17.07 259.21-14.7 259.21-11.28L259.21-11.28Q259.21-7.28 261.28-4.42 263.36-1.56 266.14-1.56L266.14-1.56Q268.73-1.56 270.39-4 272.05-6.45 272.05-9.86L272.05-9.86Q272.05-13.82 269.95-16.63 267.85-19.43 265.07-19.43ZM265.61-21.34L265.61-21.34Q270-21.34 273.12-18.16 276.25-14.99 276.25-10.55L276.25-10.55Q276.25-6.05 273.2-2.86 270.15 0.34 265.7 0.34 261.26 0.34 258.13-2.86 255.01-6.05 255.01-10.55L255.01-10.55Q255.01-15.09 258.04-18.21 261.06-21.34 265.61-21.34ZM313.96-16.65L313.96-16.65 313.96-6.88Q313.96-4.79 314.3-3.17L314.3-3.17Q314.4-2.83 314.84-2.64 315.28-2.44 315.77-2.39 316.26-2.34 316.75-2.34L316.75-2.34 317.19-2.29Q317.33-2.25 317.33-1.76L317.33-1.76Q317.33-1.61 317.21-1.29 317.09-0.98 316.94-0.98L316.94-0.98Q316.21-0.93 315.31-0.78 314.4-0.63 313.62-0.44 312.84-0.24 312.16-0.05 311.47 0.15 311.08 0.29L311.08 0.29 310.64 0.39Q310.25 0.39 310.25-0.39L310.25-0.39 310.25-2.88 310.15-3.13Q306.93 0.34 303.76 0.34L303.76 0.34Q301.95 0.34 300.66-0.56 299.36-1.46 298.75-2.95 298.14-4.44 297.9-5.83 297.65-7.23 297.65-8.74L297.65-8.74 297.65-14.89Q297.65-16.8 296.97-17.53L296.97-17.53Q296.48-18.12 295.77-18.33 295.07-18.55 294.6-18.55 294.14-18.55 294.14-18.65L294.14-18.65Q294.14-19.82 294.43-19.87L294.43-19.87Q299.61-20.65 301.17-21.14L301.17-21.14Q301.22-21.14 301.32-21.17 301.41-21.19 301.41-21.19L301.41-21.19Q301.61-21.19 301.66-20.78 301.71-20.36 301.66-20.17L301.66-20.17Q301.37-17.82 301.37-16.55L301.37-16.55 301.37-9.96Q301.37-6.2 302.49-4.42 303.61-2.64 306.15-2.64L306.15-2.64Q307.62-2.64 308.93-3.78 310.25-4.93 310.25-5.76L310.25-5.76 310.25-14.89Q310.25-16.8 309.57-17.53L309.57-17.53Q309.08-18.12 308.37-18.33 307.66-18.55 307.2-18.55 306.74-18.55 306.74-18.65L306.74-18.65Q306.74-19.82 307.03-19.87L307.03-19.87Q312.21-20.65 313.77-21.14L313.77-21.14Q313.82-21.14 313.91-21.17 314.01-21.19 314.01-21.19L314.01-21.19Q314.21-21.19 314.26-20.78 314.3-20.36 314.26-20.17L314.26-20.17Q313.96-17.82 313.96-16.65ZM341.91-21.34L341.91-21.34Q342.98-21.34 344.62-21.07 346.26-20.8 346.89-20.7L346.89-20.7Q347.38-18.46 347.48-15.72L347.48-15.72Q347.48-15.48 346.84-15.48L346.84-15.48Q346.16-15.48 346.11-15.82L346.11-15.82Q345.87-17.19 344.72-18.41 343.57-19.63 342.11-19.63L342.11-19.63Q338.59-19.63 338.59-16.75L338.59-16.75Q338.59-16.02 338.79-15.45 338.98-14.89 339.54-14.38 340.1-13.87 340.4-13.65 340.69-13.43 341.69-12.87 342.69-12.3 342.94-12.16L342.94-12.16Q343.13-12.06 344.08-11.5 345.04-10.94 345.43-10.69 345.82-10.45 346.57-9.86 347.33-9.28 347.67-8.81 348.01-8.35 348.33-7.64 348.65-6.93 348.65-6.2L348.65-6.2Q348.65-3.32 346.4-1.39 344.16 0.54 341.13 0.54L341.13 0.54Q340.1 0.54 339.25 0.42 338.4 0.29 337.22 0 336.05-0.29 335.42-0.39L335.42-0.39Q335.12-1.17 334.86-2.83 334.59-4.49 334.59-5.47L334.59-5.47Q334.98-5.76 335.17-5.76L335.17-5.76Q335.9-5.76 335.95-5.47L335.95-5.47Q336.25-4 337.78-2.61 339.32-1.22 341.13-1.22L341.13-1.22Q342.69-1.22 343.69-2.08 344.69-2.93 344.69-4.54L344.69-4.54Q344.69-5.37 344.38-6.08 344.06-6.79 343.35-7.35 342.64-7.91 342.03-8.28 341.42-8.64 340.3-9.23 339.18-9.81 338.64-10.16L338.64-10.16Q334.83-12.35 334.83-15.38L334.83-15.38Q334.83-18.02 336.95-19.68 339.08-21.34 341.91-21.34ZM375.72-19.48L375.72-19.48Q373.18-19.48 371.84-17.31 370.49-15.14 370.49-13.72L370.49-13.72Q370.49-13.38 370.79-13.38L370.79-13.38 380.31-13.38Q380.55-13.38 380.55-13.87L380.55-13.87Q380.55-15.43 379.23-17.46 377.92-19.48 375.72-19.48ZM376.21-21.29L376.21-21.29Q378.45-21.29 380.16-20.43 381.87-19.58 382.77-18.24 383.68-16.89 384.09-15.5 384.51-14.11 384.51-12.74L384.51-12.74Q384.51-11.77 384.21-11.55 383.92-11.33 383.09-11.33L383.09-11.33 370.79-11.33Q370.4-11.33 370.4-11.08L370.4-11.08Q370.4-8.01 372.25-5.42 374.11-2.83 377.62-2.83L377.62-2.83Q378.65-2.83 379.58-3.03 380.5-3.22 381.16-3.49 381.82-3.76 382.29-4.03 382.75-4.3 383.09-4.54L383.09-4.54 383.43-4.79Q383.73-4.79 383.73-4.15L383.73-4.15Q383.73-3.76 383.43-3.27L383.43-3.27Q382.46-1.9 380.55-0.81 378.65 0.29 376.4 0.29L376.4 0.29Q372.35 0.29 369.44-2.76 366.54-5.81 366.54-10.21L366.54-10.21Q366.54-15.33 369.3-18.31 372.06-21.29 376.21-21.29Z" opacity="1" transform="matrix(1,0,0,1,0,0)" fill="#c0c0c0" class="slogan-text-1" data-fill-palette-color="secondary" id="text-1"></path></svg></g></svg></g></svg></g></svg></g><g><svg viewBox="0 0 169.31985271654443 147.58345229712293" height="147.58345229712293" width="169.31985271654443"><g><svg xmlns="http://www.w3.org/2000/svg" xmlns:xlink="http://www.w3.org/1999/xlink" version="1.1" x="8" y="0" viewBox="9.533999999999995 11.048000000000004 80.93100073394749 77.90299999999999" enable-background="new 0 0 100 100" xml:space="preserve" height="147.58345229712293" width="153.31985271654443" class="icon-icon-0" data-fill-palette-color="accent" id="icon-0"><path d="M26.774 21.824l2.762 2.893c6.531-6.233 15.102-9.667 24.133-9.668 9.424 0 18.259 3.694 24.879 10.403l2.848-2.809c-7.378-7.478-17.225-11.595-27.727-11.595C43.604 11.049 34.053 14.875 26.774 21.824zM53.669 84.951c-10.627 0-20.553-4.75-27.23-13.033l-3.113 2.51c7.44 9.23 18.5 14.523 30.344 14.523 9.904 0 19.343-3.721 26.577-10.477l-2.73-2.924C71.025 81.613 62.557 84.951 53.669 84.951zM23.534 26.714c0-0.919-0.747-1.667-1.666-1.667s-1.667 0.748-1.667 1.667v8.403c0 0.553-0.447 1-1 1s-1-0.447-1-1v-8.403c0-0.919-0.748-1.667-1.667-1.667-0.917 0-1.663 0.745-1.666 1.662 0 0.002 0.001 0.003 0.001 0.005s-0.001 0.003-0.001 0.005v8.398c0 0.553-0.447 1-1 1s-1-0.447-1-1v-8.408c-0.002-0.917-0.749-1.662-1.666-1.662-0.92 0-1.668 0.748-1.668 1.667v9.108c0 3.593 1.631 5.206 2.941 6.503 0.918 0.907 1.785 1.765 1.785 3.036v31.513c0 1.32 1.021 2.395 2.274 2.395s2.274-1.074 2.274-2.395V45.362c0-1.271 0.866-2.128 1.784-3.036 1.31-1.297 2.94-2.91 2.94-6.503V26.714zM38.809 33.604c-5.878 7.62-9.095 18.103-8.003 26.085 0.633 4.635 2.597 8.213 5.837 10.635 1.38 1.033 3.01 1.578 4.713 1.578 2.383 0 4.58-1.076 6.027-2.951 1.082-1.402 1.48-3.184 1.902-5.066 0.501-2.24 1.076-4.723 2.979-6.594-0.256-0.035-0.514-0.063-0.776-0.088-0.448-0.041-0.919-0.088-1.394-0.189-2.916 0.32-4.736 2.055-6.491 3.738-0.431 0.414-0.849 0.814-1.268 1.182-0.189 0.166-0.424 0.246-0.658 0.246-0.278 0-0.556-0.115-0.753-0.342-0.363-0.416-0.321-1.047 0.095-1.41 0.396-0.348 0.792-0.727 1.199-1.117 1.383-1.328 3.021-2.898 5.316-3.744-0.002-0.002-0.005-0.004-0.007-0.006-2.344-2.602-4.687-3.395-10.987-0.51-0.505 0.229-1.096 0.008-1.325-0.494s-0.01-1.096 0.493-1.324c6.488-2.971 9.972-2.713 13.306 0.99 0.427 0.473 0.883 0.693 1.41 0.816 0.007 0.002 0.014 0.004 0.021 0.006 0.369 0.084 0.772 0.125 1.229 0.168 0.819 0.076 1.738 0.18 2.719 0.578 1.395-0.648 2.778-0.756 3.986-0.756 0.601 0 1.213 0.029 1.836 0.059 0.613 0.029 1.237 0.061 1.873 0.061 1.851 0 4.055-0.246 6.365-2.072 3.064-2.418 4.74-5.881 4.719-9.751-0.026-4.832-2.715-9.778-7.191-13.231-3.422-2.641-7.509-4.035-11.819-4.035-3.349 0-6.554 0.843-9.377 2.402-2.84 3.426-1.988 6.482-1.164 9.438 0.568 2.041 1.106 3.969 0.152 5.671-0.183 0.328-0.522 0.512-0.873 0.512-0.165 0-0.333-0.041-0.487-0.128-0.482-0.27-0.654-0.879-0.384-1.36 0.55-0.982 0.14-2.454-0.335-4.157-0.569-2.044-1.284-4.61-0.521-7.395C40.32 31.82 39.527 32.672 38.809 33.604zM57.78 34.391c3.801 0 6.893 3.093 6.893 6.895s-3.092 6.895-6.893 6.895c-3.803 0-6.896-3.093-6.896-6.895S53.978 34.391 57.78 34.391zM88.19 25.227c-4.791 0-5.393 15.488-5.406 27.359l2.847 2.9c0.184 0.188 0.286 0.439 0.286 0.701v20.629c0 1.254 1.02 2.273 2.273 2.273 1.255 0 2.275-1.02 2.275-2.273V27.5C90.466 26.247 89.445 25.227 88.19 25.227zM57.78 46.18c2.698 0 4.893-2.195 4.893-4.895s-2.194-4.895-4.893-4.895c-2.7 0-4.896 2.195-4.896 4.895S55.08 46.18 57.78 46.18zM69.692 54.652c-2.807 2.217-5.538 2.502-7.604 2.502-0.668 0-1.325-0.031-1.97-0.063-0.59-0.029-1.17-0.057-1.739-0.057-1.172 0-2.537 0.107-3.784 0.916-2.261 1.465-2.794 3.848-3.358 6.369-0.45 2.016-0.916 4.098-2.27 5.852-1.815 2.354-4.563 3.707-7.543 3.727 1.702 0.846 3.419 1.268 5.035 1.186 2.024-0.102 3.754-0.979 4.999-2.537 1.992-2.49 2.611-4.754 3.157-6.75 0.484-1.768 0.901-3.295 2.154-4.41 1.043-0.928 2.561-0.842 4.317-0.748 2.793 0.154 6.613 0.365 10.685-3.238 2.819-2.496 4.36-5.68 4.455-9.209 0.052-1.938-0.327-3.964-1.108-6.022 0.031 0.384 0.052 0.768 0.054 1.151C75.197 47.819 73.251 51.844 69.692 54.652z" fill="#f0e68c" data-fill-palette-color="accent"></path></svg></g></svg></g></svg></g><defs></defs></svg><rect width="395.52" height="100.91364780810454" fill="none" stroke="none" visibility="hidden"></rect></g></svg></g></svg>